#Comment line ignore any data following # character 
#Hierarchical Translation and Rotation (.htr) file 
[Header]	
#Header keywords are followed by a single value 
FileType HTR		#Single word string
DataType HTRS		#Translation followed by rotation and scale data
FileVersion 1		#integer
NumSegments 84		#integer
NumFrames 2		#integer
DataFrameRate 30		#integer, data frame rate in this file
EulerRotationOrder ZYX
CalibrationUnits mm
RotationUnits Degrees
GlobalAxisofGravity Y
BoneLengthAxis Y
ScaleFactor 1.00
[SegmentNames&Hierarchy]
#CHILD	PARENT
MASTER GLOBAL
root MASTER
chest root
L_mid_tent01 root
R_mid_tent01 root
spine01 root
Bip01_Neck chest
L_humerus chest
R_humerus chest
weapon_bone chest
Bip01_Head Bip01_Neck
eye_left_bone Bip01_Head
eye_right_bone Bip01_Head
L_forearm L_humerus
L_front_hand L_forearm
L_weapon_bone L_forearm
L_front_hand01_01 L_front_hand
L_front_hand02_01 L_front_hand
L_front_hand03_01 L_front_hand
L_front_hand01_02 L_front_hand01_01
L_front_hand02_02 L_front_hand02_01
L_front_hand03_02 L_front_hand03_01
R_forearm R_humerus
R_front_hand R_forearm
R_weapon_bone R_forearm
R_front_hand01_01 R_front_hand
R_front_hand02_01 R_front_hand
R_front_hand03_01 R_front_hand
R_front_hand01_02 R_front_hand01_01
R_front_hand02_02 R_front_hand02_01
R_front_hand03_02 R_front_hand03_01
null_rope01_connect L_mid_tent01
Rope1_Seg01 null_rope01_connect
Rope1_Seg02 Rope1_Seg01
Rope1_Seg03 Rope1_Seg02
Rope1_Seg04 Rope1_Seg03
Rope1_Seg05 Rope1_Seg04
Rope1_Seg06 Rope1_Seg05
Rope1_Seg07 Rope1_Seg06
Rope1_Seg09 Rope1_Seg07
L_mid_hand01 Rope1_Seg09
L_mid_hand02 Rope1_Seg09
L_mid_hand03 Rope1_Seg09
null_rope02_connect R_mid_tent01
Rope2_Seg01 null_rope02_connect
Rope2_Seg02 Rope2_Seg01
Rope2_Seg03 Rope2_Seg02
Rope2_Seg04 Rope2_Seg03
Rope2_Seg05 Rope2_Seg04
Rope2_Seg06 Rope2_Seg05
Rope2_Seg07 Rope2_Seg06
Rope2_Seg09 Rope2_Seg07
R_mid_hand01 Rope2_Seg09
R_mid_hand02 Rope2_Seg09
R_mid_hand03 Rope2_Seg09
spine02 spine01
spine03 spine02
pelvis spine03
null_rope03_connect pelvis
null_rope04_connect pelvis
Rope3_Seg01 null_rope03_connect
Rope3_Seg02 Rope3_Seg01
Rope3_Seg03 Rope3_Seg02
Rope3_Seg04 Rope3_Seg03
Rope3_Seg05 Rope3_Seg04
Rope3_Seg06 Rope3_Seg05
Rope3_Seg07 Rope3_Seg06
Rope3_Seg08 Rope3_Seg07
Rope3_Seg09 Rope3_Seg08
R_rear_hand01 Rope3_Seg09
R_rear_hand02 Rope3_Seg09
R_rear_hand03 Rope3_Seg09
Rope4_Seg01 null_rope04_connect
Rope4_Seg02 Rope4_Seg01
Rope4_Seg03 Rope4_Seg02
Rope4_Seg04 Rope4_Seg03
Rope4_Seg05 Rope4_Seg04
Rope4_Seg06 Rope4_Seg05
Rope4_Seg07 Rope4_Seg06
Rope4_Seg08 Rope4_Seg07
Rope4_Seg09 Rope4_Seg08
L_rear_hand01 Rope4_Seg09
L_rear_hand02 Rope4_Seg09
L_rear_hand03 Rope4_Seg09
[BasePosition]
#SegmentName Tx, Ty, Tz, Rx, Ry, Rz, BoneLength
MASTER 0.000000 0.000000 0.000000 -90.000000 0.000000 0.000000 10.000000 
root 0.000000 0.000000 0.000000 0.000000 0.000000 0.000000 10.000000 
chest 0.000000 0.000000 0.000000 0.000000 0.000000 0.000000 10.000000 
L_mid_tent01 0.000000 0.000000 0.000000 0.000000 0.000000 0.000000 10.000000 
R_mid_tent01 0.000000 0.000000 0.000000 0.000000 0.000000 0.000000 10.000000 
spine01 0.000000 0.000000 0.000000 0.000000 0.000000 0.000000 10.000000 
Bip01_Neck 0.000000 0.000000 0.000000 0.000000 0.000000 0.000000 10.000000 
L_humerus 0.000000 0.000000 0.000000 0.000000 0.000000 0.000000 10.000000 
R_humerus 0.000000 0.000000 0.000000 0.000000 0.000000 0.000000 10.000000 
weapon_bone 0.000000 0.000000 0.000000 0.000000 0.000000 0.000000 10.000000 
Bip01_Head 0.000000 0.000000 0.000000 0.000000 0.000000 0.000000 10.000000 
eye_left_bone 0.000000 0.000000 0.000000 0.000000 0.000000 0.000000 10.000000 
eye_right_bone 0.000000 0.000000 0.000000 0.000000 0.000000 0.000000 10.000000 
L_forearm 0.000000 0.000000 0.000000 0.000000 0.000000 0.000000 10.000000 
L_front_hand 0.000000 0.000000 0.000000 0.000000 0.000000 0.000000 10.000000 
L_weapon_bone 0.000000 0.000000 0.000000 0.000000 0.000000 0.000000 10.000000 
L_front_hand01_01 0.000000 0.000000 0.000000 0.000000 0.000000 0.000000 10.000000 
L_front_hand02_01 0.000000 0.000000 0.000000 0.000000 0.000000 0.000000 10.000000 
L_front_hand03_01 0.000000 0.000000 0.000000 0.000000 0.000000 0.000000 10.000000 
L_front_hand01_02 0.000000 0.000000 0.000000 0.000000 0.000000 0.000000 10.000000 
L_front_hand02_02 0.000000 0.000000 0.000000 0.000000 0.000000 0.000000 10.000000 
L_front_hand03_02 0.000000 0.000000 0.000000 0.000000 0.000000 0.000000 10.000000 
R_forearm 0.000000 0.000000 0.000000 0.000000 0.000000 0.000000 10.000000 
R_front_hand 0.000000 0.000000 0.000000 0.000000 0.000000 0.000000 10.000000 
R_weapon_bone 0.000000 0.000000 0.000000 0.000000 0.000000 0.000000 10.000000 
R_front_hand01_01 0.000000 0.000000 0.000000 0.000000 0.000000 0.000000 10.000000 
R_front_hand02_01 0.000000 0.000000 0.000000 0.000000 0.000000 0.000000 10.000000 
R_front_hand03_01 0.000000 0.000000 0.000000 0.000000 0.000000 0.000000 10.000000 
R_front_hand01_02 0.000000 0.000000 0.000000 0.000000 0.000000 0.000000 10.000000 
R_front_hand02_02 0.000000 0.000000 0.000000 0.000000 0.000000 0.000000 10.000000 
R_front_hand03_02 0.000000 0.000000 0.000000 0.000000 0.000000 0.000000 10.000000 
null_rope01_connect 0.000000 0.000000 0.000000 0.000000 0.000000 0.000000 10.000000 
Rope1_Seg01 0.000000 0.000000 0.000000 0.000000 0.000000 0.000000 10.000000 
Rope1_Seg02 0.000000 0.000000 0.000000 0.000000 0.000000 0.000000 10.000000 
Rope1_Seg03 0.000000 0.000000 0.000000 0.000000 0.000000 0.000000 10.000000 
Rope1_Seg04 0.000000 0.000000 0.000000 0.000000 0.000000 0.000000 10.000000 
Rope1_Seg05 0.000000 0.000000 0.000000 0.000000 0.000000 0.000000 10.000000 
Rope1_Seg06 0.000000 0.000000 0.000000 0.000000 0.000000 0.000000 10.000000 
Rope1_Seg07 0.000000 0.000000 0.000000 0.000000 0.000000 0.000000 10.000000 
Rope1_Seg09 0.000000 0.000000 0.000000 0.000000 0.000000 0.000000 10.000000 
L_mid_hand01 0.000000 0.000000 0.000000 0.000000 0.000000 0.000000 10.000000 
L_mid_hand02 0.000000 0.000000 0.000000 0.000000 0.000000 0.000000 10.000000 
L_mid_hand03 0.000000 0.000000 0.000000 0.000000 0.000000 0.000000 10.000000 
null_rope02_connect 0.000000 0.000000 0.000000 0.000000 0.000000 0.000000 10.000000 
Rope2_Seg01 0.000000 0.000000 0.000000 0.000000 0.000000 0.000000 10.000000 
Rope2_Seg02 0.000000 0.000000 0.000000 0.000000 0.000000 0.000000 10.000000 
Rope2_Seg03 0.000000 0.000000 0.000000 0.000000 0.000000 0.000000 10.000000 
Rope2_Seg04 0.000000 0.000000 0.000000 0.000000 0.000000 0.000000 10.000000 
Rope2_Seg05 0.000000 0.000000 0.000000 0.000000 0.000000 0.000000 10.000000 
Rope2_Seg06 0.000000 0.000000 0.000000 0.000000 0.000000 0.000000 10.000000 
Rope2_Seg07 0.000000 0.000000 0.000000 0.000000 0.000000 0.000000 10.000000 
Rope2_Seg09 0.000000 0.000000 0.000000 0.000000 0.000000 0.000000 10.000000 
R_mid_hand01 0.000000 0.000000 0.000000 0.000000 0.000000 0.000000 10.000000 
R_mid_hand02 0.000000 0.000000 0.000000 0.000000 0.000000 0.000000 10.000000 
R_mid_hand03 0.000000 0.000000 0.000000 0.000000 0.000000 0.000000 10.000000 
spine02 0.000000 0.000000 0.000000 0.000000 0.000000 0.000000 10.000000 
spine03 0.000000 0.000000 0.000000 0.000000 0.000000 0.000000 10.000000 
pelvis 0.000000 0.000000 0.000000 0.000000 0.000000 0.000000 10.000000 
null_rope03_connect 0.000000 0.000000 0.000000 0.000000 0.000000 0.000000 10.000000 
null_rope04_connect 0.000000 0.000000 0.000000 0.000000 0.000000 0.000000 10.000000 
Rope3_Seg01 0.000000 0.000000 0.000000 0.000000 0.000000 0.000000 10.000000 
Rope3_Seg02 0.000000 0.000000 0.000000 0.000000 0.000000 0.000000 10.000000 
Rope3_Seg03 0.000000 0.000000 0.000000 0.000000 0.000000 0.000000 10.000000 
Rope3_Seg04 0.000000 0.000000 0.000000 0.000000 0.000000 0.000000 10.000000 
Rope3_Seg05 0.000000 0.000000 0.000000 0.000000 0.000000 0.000000 10.000000 
Rope3_Seg06 0.000000 0.000000 0.000000 0.000000 0.000000 0.000000 10.000000 
Rope3_Seg07 0.000000 0.000000 0.000000 0.000000 0.000000 0.000000 10.000000 
Rope3_Seg08 0.000000 0.000000 0.000000 0.000000 0.000000 0.000000 10.000000 
Rope3_Seg09 0.000000 0.000000 0.000000 0.000000 0.000000 0.000000 10.000000 
R_rear_hand01 0.000000 0.000000 0.000000 0.000000 0.000000 0.000000 10.000000 
R_rear_hand02 0.000000 0.000000 0.000000 0.000000 0.000000 0.000000 10.000000 
R_rear_hand03 0.000000 0.000000 0.000000 0.000000 0.000000 0.000000 10.000000 
Rope4_Seg01 0.000000 0.000000 0.000000 0.000000 0.000000 0.000000 10.000000 
Rope4_Seg02 0.000000 0.000000 0.000000 0.000000 0.000000 0.000000 10.000000 
Rope4_Seg03 0.000000 0.000000 0.000000 0.000000 0.000000 0.000000 10.000000 
Rope4_Seg04 0.000000 0.000000 0.000000 0.000000 0.000000 0.000000 10.000000 
Rope4_Seg05 0.000000 0.000000 0.000000 0.000000 0.000000 0.000000 10.000000 
Rope4_Seg06 0.000000 0.000000 0.000000 0.000000 0.000000 0.000000 10.000000 
Rope4_Seg07 0.000000 0.000000 0.000000 0.000000 0.000000 0.000000 10.000000 
Rope4_Seg08 0.000000 0.000000 0.000000 0.000000 0.000000 0.000000 10.000000 
Rope4_Seg09 0.000000 0.000000 0.000000 0.000000 0.000000 0.000000 10.000000 
L_rear_hand01 0.000000 0.000000 0.000000 0.000000 0.000000 0.000000 10.000000 
L_rear_hand02 0.000000 0.000000 0.000000 0.000000 0.000000 0.000000 10.000000 
L_rear_hand03 0.000000 0.000000 0.000000 0.000000 0.000000 0.000000 10.000000 
#Beginning of Data. Separated by tabs
#Fr	Tx	Ty	Tz	Rx	Ry	Rz	SF
[MASTER]
1 0.000003 -0.000096 -0.000083 0.001660 0.001660 0.001660 0.000127
2 0.000003 -0.000097 -21.717098 0.001660 0.001660 0.001660 21.717098
[root]
1 -16.502296 -33.081390 1478.707886 -65.894356 -12.339475 -81.177132 1479.169922
2 -16.502296 -32.979420 1477.835327 -66.434837 -12.355539 -81.377029 1478.295288
[chest]
1 -84.512650 -34.090519 0.000000 -153.108154 1.866855 138.579498 91.129311
2 -84.512650 -34.090519 0.000000 -143.276306 3.373286 140.152618 91.129311
[L_mid_tent01]
1 27.299307 22.178345 -249.918488 -167.022537 41.908432 -71.675575 252.381424
2 27.299303 22.178360 -249.918488 -165.920624 41.646210 -71.132957 252.381424
[R_mid_tent01]
1 23.228794 24.509907 226.238495 -138.786179 -81.690567 26.823822 228.744751
2 23.228794 24.509907 226.238495 -132.033249 -81.748375 20.266996 228.744751
[spine01]
1 -0.361383 -0.195265 0.000000 0.002062 0.001122 32.879829 0.410763
2 -0.361383 -0.195265 0.000000 0.002062 0.001122 32.879829 0.410763
[Bip01_Neck]
1 165.484543 71.581718 0.000119 176.643677 -1.657967 43.431911 180.302734
2 165.484543 71.581718 0.000119 176.643677 -1.657967 43.431911 180.302734
[L_humerus]
1 -13.983130 -135.272980 -120.471481 170.201614 66.094048 -98.984741 181.680161
2 -13.983130 -135.272980 -120.471481 169.307770 66.406860 -100.265228 181.680161
[R_humerus]
1 -13.983309 -135.273102 125.287651 -179.860123 -70.693672 -80.556290 184.909012
2 -13.983309 -135.273102 125.287651 -179.128799 -70.871071 -81.895149 184.909012
[weapon_bone]
1 235.964890 -300.705902 0.000000 0.000000 -89.951546 -128.212341 382.234833
2 235.964890 -300.705902 0.000000 0.000000 -89.951546 -128.212341 382.234833
[Bip01_Head]
1 213.342209 185.950165 8.747687 22.393787 5.060511 -43.854626 283.141113
2 213.340729 185.958847 8.635776 23.162376 5.148097 -43.855732 283.142273
[eye_left_bone]
1 -24.626970 125.451866 -64.772606 0.000000 -90.000000 -99.840431 143.318359
2 -24.626970 125.451866 -64.772606 0.000000 -90.000000 -99.840431 143.318359
[eye_right_bone]
1 -24.626970 125.451866 64.327362 0.000000 -89.980217 80.156380 143.117676
2 -24.626970 125.451866 64.327362 0.000000 -89.965736 80.156380 143.117676
[L_forearm]
1 322.776093 0.000000 -0.000119 0.000274 -0.002331 -103.391266 322.776093
2 322.776093 0.000000 -0.000119 0.000266 -0.002332 -103.015297 322.776093
[L_front_hand]
1 241.149185 -0.042021 -3.300071 -178.427094 -1.634154 -35.352844 241.171753
2 241.149185 -0.042021 -3.300071 -178.435089 -1.641882 -35.070133 241.171753
[L_weapon_bone]
1 156.183838 0.000000 0.000000 0.000014 0.000007 0.000001 156.183838
2 156.183838 0.000000 0.000000 0.000014 0.000007 0.000001 156.183838
[L_front_hand01_01]
1 86.095154 20.947098 -0.655860 -0.315637 -0.507437 69.776642 88.609184
2 86.095154 20.947098 -0.655860 -0.324714 -0.504351 70.591713 88.609184
[L_front_hand02_01]
1 86.935165 -11.437475 24.513514 146.427612 -57.108467 -52.024445 91.046425
2 86.935165 -11.437475 24.513514 147.492981 -57.551224 -53.290249 91.046425
[L_front_hand03_01]
1 86.637497 -14.123976 -20.424902 -146.492767 55.326031 -53.834255 90.126129
2 86.637497 -14.123976 -20.424902 -147.489609 55.767548 -55.042362 90.126129
[L_front_hand01_02]
1 71.020905 -0.000179 0.000030 0.000319 -0.002325 -105.617981 71.020905
2 71.020905 -0.000179 0.000030 0.000320 -0.002325 -105.678581 71.020905
[L_front_hand02_02]
1 71.020927 -0.000119 0.000060 0.000319 -0.002325 -105.617981 71.020927
2 71.020927 -0.000119 0.000060 0.000320 -0.002325 -105.678581 71.020927
[L_front_hand03_02]
1 71.020905 -0.000060 0.000060 0.000319 -0.002325 -105.617981 71.020905
2 71.020905 -0.000060 0.000060 0.000320 -0.002325 -105.678581 71.020905
[R_forearm]
1 322.776428 -0.000060 0.000030 0.210852 0.035763 -101.136024 322.776428
2 322.776428 -0.000060 0.000030 0.210962 0.035114 -100.782959 322.776428
[R_front_hand]
1 238.847015 -0.006795 2.210259 -0.874991 -10.926000 -35.694199 238.857239
2 238.847015 -0.006795 2.210259 -0.937409 -10.923107 -35.369984 238.857239
[R_weapon_bone]
1 155.664093 0.002503 -0.000030 0.003487 0.001180 -90.988930 155.664078
2 155.664093 0.002503 -0.000030 0.003487 0.001180 -90.988930 155.664078
[R_front_hand01_01]
1 87.624611 14.231146 22.918642 -147.670532 -57.619129 53.605927 91.683487
2 87.624611 14.231146 22.918642 -149.707184 -58.394520 56.007469 91.683487
[R_front_hand02_01]
1 89.356956 14.367283 -19.491137 148.052368 55.989704 55.954620 92.579636
2 89.356956 14.367283 -19.491137 149.983475 56.758801 58.275948 92.579636
[R_front_hand03_01]
1 87.286232 -22.307278 -0.143439 0.125269 -0.437058 -70.957237 90.091743
2 87.286232 -22.307278 -0.143439 0.134949 -0.432464 -72.452240 90.091743
[R_front_hand01_02]
1 71.020905 0.000060 0.000119 0.002323 -0.000334 106.381714 71.020905
2 71.020905 0.000060 0.000119 0.002323 -0.000334 106.381714 71.020905
[R_front_hand02_02]
1 71.020844 -0.000030 -0.000119 0.002323 -0.000334 106.381714 71.020836
2 71.020844 -0.000030 -0.000119 0.002323 -0.000334 106.381714 71.020836
[R_front_hand03_02]
1 71.020905 0.000000 0.000030 0.002323 -0.000334 106.381714 71.020905
2 71.020905 0.000000 0.000030 0.002323 -0.000334 106.381714 71.020905
[null_rope01_connect]
1 328.732483 0.000000 -0.000238 -163.793335 20.160751 -157.101974 328.732483
2 328.732483 0.000000 -0.000238 -162.969879 20.607683 -156.539505 328.732483
[Rope1_Seg01]
1 0.000000 -0.000057 0.000000 -3.497350 3.422864 -159.471375 0.000057
2 0.000002 -0.000057 0.000008 -3.186610 4.691901 -160.401260 0.000057
[Rope1_Seg02]
1 139.999863 -0.000179 0.000000 -11.175430 -9.315275 -10.510959 139.999863
2 139.999863 -0.000179 0.000000 -10.804659 -9.676358 -10.441363 139.999863
[Rope1_Seg03]
1 139.999924 0.000060 -0.000060 -9.261445 -5.013373 -17.977667 139.999924
2 139.999924 0.000060 -0.000060 -8.855940 -5.373627 -17.190739 139.999924
[Rope1_Seg04]
1 139.999924 -0.000060 -0.000119 -6.453903 -7.848607 -19.597149 139.999924
2 139.999924 -0.000060 -0.000119 -6.234924 -7.687821 -18.196915 139.999924
[Rope1_Seg05]
1 139.999832 0.000119 -0.000060 -6.078434 -28.531282 -22.599646 139.999832
2 139.999832 0.000119 -0.000060 -6.727062 -28.426680 -21.987934 139.999832
[Rope1_Seg06]
1 139.999954 0.000119 -0.000060 -3.632465 -10.438565 -12.122742 139.999954
2 139.999954 0.000119 -0.000060 -4.082971 -11.178609 -12.689630 139.999954
[Rope1_Seg07]
1 139.999985 0.000060 0.000000 -1.519915 -3.805197 -5.799929 139.999985
2 139.999985 0.000060 0.000000 -1.700003 -3.987288 -6.064264 139.999985
[Rope1_Seg09]
1 121.602913 0.000119 -0.000089 -89.793175 -1.359789 0.847147 121.602913
2 121.602913 0.000119 -0.000089 -89.793175 -1.359789 0.847147 121.602913
[L_mid_hand01]
1 103.859421 1.038730 8.195221 130.544373 -67.584534 -38.866943 104.187431
2 103.859421 1.038730 8.195221 130.544373 -67.584526 -38.866943 104.187431
[L_mid_hand02]
1 105.572853 -4.139662 -10.864139 -168.923172 43.409309 -73.498886 106.211075
2 105.572853 -4.139662 -10.864139 -168.923172 43.409328 -73.498909 106.211075
[L_mid_hand03]
1 104.641464 17.579376 -3.913581 -6.012627 17.808178 74.893677 106.179977
2 104.641464 17.579376 -3.913581 -6.012626 17.808178 74.893677 106.179977
[null_rope02_connect]
1 328.732849 0.000179 -0.000119 -147.679077 -21.034315 -6.768865 328.732849
2 328.732849 0.000179 -0.000119 -147.771988 -21.153875 -7.324463 328.732849
[Rope2_Seg01]
1 -0.000076 0.000098 0.000000 86.121361 28.787027 24.018351 0.000124
2 -0.000071 0.000098 0.000000 85.158188 29.722179 22.586063 0.000121
[Rope2_Seg02]
1 139.999741 -0.000060 -0.000119 2.783207 4.267462 11.968336 139.999756
2 139.999741 -0.000060 -0.000119 2.797968 4.266318 11.466303 139.999756
[Rope2_Seg03]
1 140.000107 0.000030 0.000000 7.125305 9.977318 24.482794 140.000107
2 140.000107 0.000030 0.000000 7.140862 10.049262 23.926161 140.000107
[Rope2_Seg04]
1 139.999802 0.000000 -0.000060 9.229679 16.914726 30.537510 139.999802
2 139.999802 0.000000 -0.000060 9.784558 17.585260 31.740925 139.999802
[Rope2_Seg05]
1 139.999985 -0.000060 0.000119 3.427779 7.873605 20.977640 139.999985
2 139.999985 -0.000060 0.000119 3.210336 8.721009 20.260567 139.999985
[Rope2_Seg06]
1 139.999893 -0.000030 -0.000119 2.773774 3.773497 17.584267 139.999893
2 139.999893 -0.000030 -0.000119 2.299922 4.547011 16.926016 139.999893
[Rope2_Seg07]
1 139.999893 0.000060 -0.000060 1.847636 3.552906 9.392660 139.999893
2 139.999893 0.000060 -0.000060 1.546638 4.046120 9.688925 139.999893
[Rope2_Seg09]
1 121.338966 0.000089 -0.000060 33.793236 -1.359788 -0.847141 121.338966
2 121.338966 0.000089 -0.000060 33.793236 -1.359788 -0.847141 121.338966
[R_mid_hand01]
1 104.680779 11.144459 -10.335981 -16.212063 45.237247 70.462852 105.778534
2 104.680779 11.144459 -10.335981 -16.212063 45.237247 70.462852 105.778534
[R_mid_hand02]
1 104.070427 2.443552 8.231699 49.067368 -67.749771 39.286453 104.424065
2 104.070427 2.443552 8.231699 49.067394 -67.749794 39.286465 104.424065
[R_mid_hand03]
1 106.028137 -11.221827 -5.996406 -177.101105 15.551029 -76.585594 106.788818
2 106.028137 -11.221827 -5.996406 -177.101105 15.551029 -76.585594 106.788818
[spine02]
1 129.756927 0.001550 0.000119 -1.175942 -4.298477 8.874411 129.756927
2 129.756927 0.001550 0.000119 -1.180923 -4.282639 8.950515 129.756927
[spine03]
1 78.613968 0.084152 -4.898911 0.939832 4.936580 2.923640 78.766502
2 78.613968 0.084092 -4.898913 0.935825 4.908545 2.876164 78.766502
[pelvis]
1 169.435242 0.051022 0.000000 0.022614 0.118846 -13.357172 169.435257
2 169.435242 0.051022 0.000000 0.022227 0.107211 -13.455121 169.435257
[null_rope03_connect]
1 -1.257226 -2.466202 137.391083 29.557177 -63.599483 39.723942 137.418976
2 -1.257226 -2.466202 137.391083 29.658997 -64.196098 39.805759 137.418976
[null_rope04_connect]
1 -1.259640 -2.480268 -137.844437 29.557177 -63.599483 39.723942 137.872513
2 -1.259640 -2.480268 -137.844437 29.658997 -64.196098 39.805759 137.872513
[Rope3_Seg01]
1 -0.000029 -0.000038 0.000000 15.188807 -1.289999 -54.668823 0.000048
2 -0.000029 -0.000037 0.000008 14.654951 -2.615896 -54.433189 0.000048
[Rope3_Seg02]
1 139.999924 -0.000119 0.000060 -2.295399 -5.404878 2.393127 139.999924
2 139.999924 -0.000119 0.000060 -2.261233 -5.497221 2.259680 139.999924
[Rope3_Seg03]
1 139.999924 -0.000119 0.000119 -3.580117 -9.028790 3.615391 139.999924
2 139.999924 -0.000119 0.000119 -3.401272 -8.982440 3.321570 139.999924
[Rope3_Seg04]
1 139.999924 0.000119 0.000000 -5.898512 -17.380445 6.070680 139.999924
2 139.999924 0.000119 0.000000 -5.304806 -16.652380 5.373140 139.999924
[Rope3_Seg05]
1 139.999924 -0.000238 0.000060 -6.811992 -33.282166 10.049972 139.999924
2 139.999924 -0.000238 0.000060 -5.940689 -31.641237 9.035947 139.999924
[Rope3_Seg06]
1 139.999893 -0.000119 -0.000060 1.040603 -17.014700 1.881498 139.999893
2 139.999893 -0.000119 -0.000060 1.080601 -16.185152 1.406713 139.999893
[Rope3_Seg07]
1 139.999771 0.000060 -0.000119 0.643027 -2.217045 -2.207250 139.999771
2 139.999771 0.000060 -0.000119 0.425218 -1.105765 -2.876348 139.999771
[Rope3_Seg08]
1 139.999985 -0.000060 0.000000 1.239205 -4.321410 -0.530148 139.999985
2 139.999985 -0.000060 0.000000 1.086323 -3.679710 -0.953660 139.999985
[Rope3_Seg09]
1 90.185997 -0.000179 -0.000060 89.793228 -1.359877 -0.847183 90.185997
2 90.185997 -0.000179 -0.000060 89.793228 -1.359877 -0.847183 90.185997
[R_rear_hand01]
1 103.366196 -6.073594 -10.757982 -177.714203 24.565966 -73.910957 104.101845
2 103.366196 -6.073594 -10.757982 -177.714203 24.565960 -73.910950 104.101845
[R_rear_hand02]
1 100.509819 12.039542 -7.992327 -12.874831 36.868481 72.167213 101.543350
2 100.509819 12.039542 -7.992327 -12.874834 36.868500 72.167229 101.543350
[R_rear_hand03]
1 101.539970 5.215704 5.435467 71.484573 -71.816628 21.513819 101.819031
2 101.539970 5.215704 5.435467 71.484627 -71.816643 21.513803 101.819031
[Rope4_Seg01]
1 0.000000 0.000000 0.000000 -97.316399 -15.236704 -111.969162 0.000000
2 0.000000 0.000000 0.000000 -97.177872 -15.606892 -112.165733 0.000000
[Rope4_Seg02]
1 139.999985 0.000060 0.000119 0.441780 2.113630 -6.756072 139.999985
2 139.999985 0.000060 0.000119 0.455916 2.140372 -6.978734 139.999985
[Rope4_Seg03]
1 139.999924 0.000000 -0.000238 0.334953 2.611294 -8.651231 139.999924
2 139.999924 0.000000 -0.000238 0.335361 2.612252 -8.849683 139.999924
[Rope4_Seg04]
1 139.999985 0.000000 0.000119 0.049667 3.653210 -10.774967 139.999985
2 139.999985 0.000000 0.000119 0.031648 3.631644 -10.780457 139.999985
[Rope4_Seg05]
1 139.999802 -0.000060 -0.000119 -0.233269 4.427739 -11.315248 139.999802
2 139.999802 -0.000060 -0.000119 -0.230173 4.168913 -10.980491 139.999802
[Rope4_Seg06]
1 139.999924 0.000000 0.000060 -0.323171 1.331569 -11.237700 139.999924
2 139.999924 0.000000 0.000060 -0.347444 1.180193 -11.182699 139.999924
[Rope4_Seg07]
1 139.999802 0.000000 0.000000 -1.414409 -1.711890 -15.747261 139.999802
2 139.999802 0.000000 0.000000 -1.500323 -1.594261 -15.767410 139.999802
[Rope4_Seg08]
1 139.999924 0.000000 0.000119 -4.953898 -0.296328 -14.883370 139.999924
2 139.999924 0.000000 0.000119 -4.860755 -0.151811 -14.355173 139.999924
[Rope4_Seg09]
1 90.185791 0.000060 0.000060 -135.617828 2.228885 0.850567 90.185791
2 90.185791 0.000060 0.000060 -135.617828 2.228885 0.850567 90.185791
[L_rear_hand01]
1 101.696655 -8.392275 -7.654577 -12.874831 -36.868481 107.832764 102.329041
2 101.696655 -8.392275 -7.654577 -12.874834 -36.868500 107.832779 102.329041
[L_rear_hand02]
1 102.726799 -1.568258 5.773216 71.484573 71.816628 158.486160 102.900848
2 102.726799 -1.568258 5.773216 71.484627 71.816643 158.486176 102.900848
[L_rear_hand03]
1 104.552910 9.721220 -10.420293 -177.714203 -24.565966 -106.089035 105.519653
2 104.552910 9.721220 -10.420293 -177.714203 -24.565960 -106.089035 105.519653
